<svg xmlns="http://www.w3.org/2000/svg" width="800" height="360" viewBox="0 0 800 360" role="img" aria-labelledby="title desc">
  <title id="title">物品管理系统 · 数智工作室主要项目</title>
  <desc id="desc">由多届成员接力维护的数智工作室主要项目，我在既有系统上参与 Java 后端开发与持续迭代。</desc>
  <defs>
    <linearGradient id="bg" x2="1" y2="1"><stop stop-color="#163539"/><stop offset="1" stop-color="#10252e"/></linearGradient>
    <radialGradient id="glow"><stop stop-color="#79e0ce" stop-opacity=".17"/><stop offset="1" stop-color="#79e0ce" stop-opacity="0"/></radialGradient>
    <linearGradient id="accent"><stop stop-color="#79e0ce"/><stop offset="1" stop-color="#bcefa7"/></linearGradient>
  </defs>
  <rect x="1" y="1" width="798" height="358" rx="24" fill="url(#bg)" stroke="#356366" stroke-width="2"/>
  <path d="M26 2H774" stroke="url(#accent)" stroke-width="3"/>
  <ellipse cx="648" cy="111" rx="188" ry="162" fill="url(#glow)"/>
  <g fill="none" stroke="#79e0ce" stroke-opacity=".12">
    <circle cx="649" cy="123" r="102"/><circle cx="649" cy="123" r="124"/>
    <path d="M518 123H780M649 15V234" stroke-dasharray="3 9"/>
  </g>
  <g font-family="-apple-system,BlinkMacSystemFont,'Segoe UI','PingFang SC','Microsoft YaHei',sans-serif">
    <rect x="36" y="30" width="114" height="27" rx="13.5" fill="#79e0ce" fill-opacity=".12"/>
    <text x="52" y="49" fill="#bcefa7" font-size="14" font-weight="600" letter-spacing="1.3">STUDIO</text>
    <text x="36" y="116" fill="#f3f8ff" font-size="48" font-weight="700">物品管理系统</text>
    <text x="37" y="155" fill="#a7ddd1" font-size="26">数智工作室 · 主要项目</text>
    <path d="M36 195H483" stroke="#356366"/>
    <text x="36" y="239" fill="#e6f2ff" font-size="36" font-weight="500">文件分享 · 消息通知</text>
    <text x="36" y="280" fill="#acbdd3" font-size="34">后端迭代 · 联调与复审</text>
    <text x="36" y="330" fill="#8ea6bd" font-size="15" letter-spacing="2">STUDIO / JAVA BACKEND</text>
  </g>
  <g transform="translate(552 41)" fill="none" stroke-width="3" stroke-linecap="round" stroke-linejoin="round">
    <rect x="37" y="7" width="112" height="76" rx="10" fill="#163539" stroke="#79e0ce"/>
    <path d="M93 7V43M93 63V83M37 45H67M118 45H149" stroke="#79e0ce"/>
    <rect x="49" y="19" width="27" height="14" rx="3" stroke="#bcefa7" stroke-width="2.5"/>
    <rect x="105" y="19" width="31" height="14" rx="3" stroke="#bcefa7" stroke-width="2.5"/>
    <path d="M50 63H76M110 62H135" stroke="#bcefa7" stroke-width="2.5"/>
    <path d="M93 83V103M42 123V103H147V123" stroke="#79e0ce" stroke-dasharray="5 7"/>
    <circle cx="93" cy="103" r="5" fill="#10252e" stroke="#bcefa7" stroke-width="2.5"/>
    <rect x="11" y="123" width="62" height="43" rx="7" fill="#10252e" stroke="#79e0ce"/>
    <path d="M11 136H73M33 147H51" stroke="#bcefa7" stroke-width="2.5"/>
    <rect x="116" y="123" width="62" height="43" rx="7" fill="#10252e" stroke="#79e0ce"/>
    <path d="M116 136H178M138 147H156" stroke="#bcefa7" stroke-width="2.5"/>
    <path d="M176 28V42M169 35H183" stroke="#bcefa7" stroke-width="2"/>
    <circle cx="7" cy="61" r="4" stroke="#79e0ce" stroke-width="2"/>
  </g>
  <path d="M659 320h75m-11-11 11 11-11 11" fill="none" stroke="#79e0ce" stroke-width="2.5" stroke-linecap="round" stroke-linejoin="round"/>
</svg>
